<svg width="16" height="16" viewBox="0 0 16 16" fill="none" xmlns="http://www.w3.org/2000/svg">
<path d="M3.33331 12H1.99998C1.59998 12 1.33331 11.7333 1.33331 11.3333V4.66667C1.33331 4.26667 1.59998 4 1.99998 4H8.66665C9.06665 4 9.33331 4.26667 9.33331 4.66667V12" stroke="#1F2937" stroke-linecap="round" stroke-linejoin="round"/>
<path d="M9.33331 6H12L14.6666 8.66667V11.3333C14.6666 11.7333 14.4 12 14 12H12.6666" stroke="#1F2937" stroke-linecap="round" stroke-linejoin="round"/>
<path d="M4.66665 13.3334C5.40303 13.3334 5.99998 12.7364 5.99998 12C5.99998 11.2636 5.40303 10.6667 4.66665 10.6667C3.93027 10.6667 3.33331 11.2636 3.33331 12C3.33331 12.7364 3.93027 13.3334 4.66665 13.3334Z" stroke="#1F2937" stroke-linecap="round" stroke-linejoin="round"/>
<path d="M10 12H6" stroke="#1F2937" stroke-linecap="round" stroke-linejoin="round"/>
<path d="M11.3333 13.3334C12.0697 13.3334 12.6667 12.7364 12.6667 12C12.6667 11.2636 12.0697 10.6667 11.3333 10.6667C10.597 10.6667 10 11.2636 10 12C10 12.7364 10.597 13.3334 11.3333 13.3334Z" stroke="black" stroke-linecap="round" stroke-linejoin="round"/>
</svg>
