<svg width="16" height="16" viewBox="0 0 16 16" fill="none" xmlns="http://www.w3.org/2000/svg">
<path d="M2.66667 1.33331V14.6666L4 14L5.33333 14.6666L6.66667 14L8 14.6666L9.33333 14L10.6667 14.6666L12 14L13.3333 14.6666V1.33331L12 1.99998L10.6667 1.33331L9.33333 1.99998L8 1.33331L6.66667 1.99998L5.33333 1.33331L4 1.99998L2.66667 1.33331Z" stroke="#6B7280" stroke-linecap="round" stroke-linejoin="round"/>
<path d="M10.6667 5.33331H6.66667C6.31304 5.33331 5.97391 5.47379 5.72386 5.72384C5.47381 5.97389 5.33333 6.31302 5.33333 6.66665C5.33333 7.02027 5.47381 7.35941 5.72386 7.60946C5.97391 7.8595 6.31304 7.99998 6.66667 7.99998H9.33333C9.68695 7.99998 10.0261 8.14046 10.2761 8.3905C10.5262 8.64055 10.6667 8.97969 10.6667 9.33331C10.6667 9.68694 10.5262 10.0261 10.2761 10.2761C10.0261 10.5262 9.68695 10.6666 9.33333 10.6666H5.33333" stroke="#6B7280" stroke-linecap="round" stroke-linejoin="round"/>
<path d="M8 11.3334V4.66669" stroke="#6B7280" stroke-linecap="round" stroke-linejoin="round"/>
</svg>
